<svg xmlns="http://www.w3.org/2000/svg" viewBox="0 0 484.39 118.55"><defs><style>.cls-1{fill:#1d1d1b;stroke:#3c3c3b;}.cls-1,.cls-2{stroke-miterlimit:10;}.cls-2{fill:#b2b2b2;stroke:#706f6f;}</style></defs><g id="Capa_2" data-name="Capa 2"><g id="Capa_1-2" data-name="Capa 1"><rect class="cls-1" x="0.5" y="15.71" width="483.39" height="91.23"/><rect class="cls-2" x="55.72" y="0.5" width="29.42" height="22.57"/><rect class="cls-2" x="122.53" y="0.5" width="29.42" height="22.57"/><rect class="cls-2" x="182.48" y="0.5" width="29.42" height="22.57"/><rect class="cls-2" x="241.61" y="0.5" width="29.42" height="22.57"/><rect class="cls-2" x="297.43" y="0.5" width="29.42" height="22.57"/><rect class="cls-2" x="352.46" y="0.5" width="29.42" height="22.57"/><rect class="cls-2" x="409.89" y="0.5" width="29.42" height="22.57"/><rect class="cls-2" x="53.28" y="96.27" width="29.42" height="21.77"/><rect class="cls-2" x="120.09" y="96.27" width="29.42" height="21.77"/><rect class="cls-2" x="180.04" y="96.27" width="29.42" height="21.77"/><rect class="cls-2" x="239.17" y="96.27" width="29.42" height="21.77"/><rect class="cls-2" x="294.99" y="96.27" width="29.42" height="21.77"/><rect class="cls-2" x="350.01" y="96.27" width="29.42" height="21.77"/><rect class="cls-2" x="407.44" y="96.27" width="29.42" height="21.77"/></g></g></svg>