<svg xmlns="http://www.w3.org/2000/svg" viewBox="0 0 359.1 97.77"><defs><style>.cls-1{fill:#1d1d1b;stroke:#3c3c3b;}.cls-1,.cls-2{stroke-miterlimit:10;}.cls-2{fill:#b2b2b2;stroke:#706f6f;}</style></defs><g id="Capa_2" data-name="Capa 2"><g id="Capa_1-2" data-name="Capa 1"><rect class="cls-1" x="130.5" y="-117.06" width="96.77" height="331.88" transform="translate(227.77 -130) rotate(90)"/><rect class="cls-2" x="342.04" y="9.86" width="12.26" height="20.88" transform="translate(368.46 -327.87) rotate(90)"/><rect class="cls-2" x="342.04" y="31.08" width="12.26" height="20.88" transform="translate(389.68 -306.65) rotate(90)"/><rect class="cls-2" x="342.04" y="51.9" width="12.26" height="20.88" transform="translate(410.51 -285.82) rotate(90)"/><rect class="cls-2" x="342.04" y="73.12" width="12.26" height="20.88" transform="translate(431.72 -264.61) rotate(90)"/><rect class="cls-2" x="4.81" y="73.12" width="12.26" height="20.88" transform="translate(-72.62 94.5) rotate(-90)"/><rect class="cls-2" x="4.81" y="51.9" width="12.26" height="20.88" transform="translate(-51.4 73.28) rotate(-90)"/><rect class="cls-2" x="4.81" y="31.08" width="12.26" height="20.88" transform="translate(-30.58 52.46) rotate(-90)"/><rect class="cls-2" x="4.81" y="9.86" width="12.26" height="20.88" transform="translate(-9.36 31.24) rotate(-90)"/></g></g></svg>