<svg xmlns="http://www.w3.org/2000/svg" viewBox="0 0 406.9 412.89"><defs><style>.cls-1{fill:#575756;stroke:#ededed;stroke-miterlimit:10;}.cls-2{fill:#ffed00;}.cls-3{fill:#fff;}</style></defs><g id="Capa_2" data-name="Capa 2"><g id="Capa_1-2" data-name="Capa 1"><rect class="cls-1" x="87.79" y="86.61" width="232.2" height="238.68" rx="57.78"/><rect class="cls-2" x="147.42" y="1.22" width="13.41" height="83.16" rx="6.7"/><path class="cls-3" d="M154.12,83.13c-3.32,0-5.44-2.77-5.45-5.89,0-1.38,0-2.76,0-4.14v-59c0-3.29-.84-8.2,2.07-10.49,3.62-2.86,8.75-.08,8.84,4.36,0,1,0,2.07,0,3.1V75.62a17.6,17.6,0,0,1-.09,3.08,5.53,5.53,0,0,1-5.37,4.43,1.25,1.25,0,0,0,0,2.5,8.09,8.09,0,0,0,8-8.09c0-1.21,0-2.42,0-3.62V8.44A8.22,8.22,0,0,0,157.66.8a8,8,0,0,0-11.48,6.78c-.05.93,0,1.86,0,2.78V70.79c0,3.59-.73,8.46,1.5,11.53a8,8,0,0,0,6.45,3.31A1.25,1.25,0,0,0,154.12,83.13Z"/><rect class="cls-2" x="186.16" y="28.82" width="13.41" height="55.73" rx="6.7"/><path class="cls-3" d="M192.87,83.3a5.52,5.52,0,0,1-5.46-5.47c0-.65,0-1.3,0-1.94V38.48c0-3-.2-6.25,3-7.84A5.5,5.5,0,0,1,198.11,34a9.33,9.33,0,0,1,.21,2.69v37c0,2.43.44,5.46-1.16,7.5a5.58,5.58,0,0,1-4.29,2.07,1.25,1.25,0,0,0,0,2.5,8.07,8.07,0,0,0,7.74-6.11,14.1,14.1,0,0,0,.21-3.18v-39c0-.67,0-1.34,0-2a8,8,0,0,0-14.68-4.25,8.85,8.85,0,0,0-1.23,4.89V77.69a8.17,8.17,0,0,0,3.32,6.61,8,8,0,0,0,4.64,1.5A1.25,1.25,0,0,0,192.87,83.3Z"/><rect class="cls-2" x="219.31" y="54.26" width="13.41" height="30.29" rx="6.7"/><path class="cls-3" d="M226,83.3a5.53,5.53,0,0,1-5.46-5.52c0-1.4,0-2.8,0-4.2,0-4.11,0-8.21,0-12.32a5.57,5.57,0,0,1,4.11-5.58,5.51,5.51,0,0,1,6.8,5.12c.12,3.59,0,7.22,0,10.82,0,2,0,3.93,0,5.89A5.57,5.57,0,0,1,226,83.3a1.25,1.25,0,0,0,0,2.5,8,8,0,0,0,7.87-6.93,39.23,39.23,0,0,0,.08-5c0-4.3.1-8.63,0-12.93a8,8,0,0,0-15.51-2.48,17.46,17.46,0,0,0-.4,5.5v8.1c0,1.92,0,3.84,0,5.75a8.06,8.06,0,0,0,8,8A1.25,1.25,0,0,0,226,83.3Z"/><rect class="cls-2" x="251.05" y="8.29" width="13.41" height="76.34" rx="6.7"/><path class="cls-3" d="M257.75,83.38a5.53,5.53,0,0,1-5.45-5.74c0-1.21,0-2.43,0-3.64V20.37c0-3.27-.75-7.71,2.33-9.86A5.52,5.52,0,0,1,263.21,15c0,.88,0,1.76,0,2.64V76.24a11.07,11.07,0,0,1-.26,3.35,5.53,5.53,0,0,1-5.2,3.79,1.25,1.25,0,0,0,0,2.5,8.09,8.09,0,0,0,8-8c0-1,0-2,0-3.06V15.32A8.13,8.13,0,0,0,261,7.73a8,8,0,0,0-11.07,5.91A20.4,20.4,0,0,0,249.8,17V72c0,3.68-.65,8.11,1.89,11.13a8,8,0,0,0,6.06,2.8A1.25,1.25,0,0,0,257.75,83.38Z"/><rect class="cls-2" x="1.22" y="244.32" width="83.16" height="13.41" rx="6.7"/><path class="cls-3" d="M83.13,251c0,3.33-2.77,5.45-5.89,5.46H14.13c-3.29,0-8.2.83-10.49-2.08A5.51,5.51,0,0,1,8,245.57c1,0,2.07,0,3.1,0H75.62a16.67,16.67,0,0,1,3.08.09A5.51,5.51,0,0,1,83.13,251a1.25,1.25,0,0,0,2.5,0,8.08,8.08,0,0,0-8.09-8c-1.21,0-2.42,0-3.62,0H8.44A8.22,8.22,0,0,0,.8,247.48,8,8,0,0,0,7.58,259c.93,0,1.86,0,2.78,0H70.79c3.59,0,8.46.73,11.53-1.51A8,8,0,0,0,85.63,251,1.25,1.25,0,0,0,83.13,251Z"/><rect class="cls-2" x="28.82" y="205.57" width="55.73" height="13.41" rx="6.7"/><path class="cls-3" d="M83.3,212.27a5.52,5.52,0,0,1-5.47,5.46c-.65,0-1.3,0-1.94,0H38.48c-3,0-6.25.2-7.84-3A5.5,5.5,0,0,1,34,207a9.69,9.69,0,0,1,2.69-.21h37c2.43,0,5.46-.44,7.5,1.16a5.58,5.58,0,0,1,2.07,4.29,1.25,1.25,0,0,0,2.5,0,8.06,8.06,0,0,0-6.11-7.73,13.55,13.55,0,0,0-3.18-.22h-39c-.67,0-1.34,0-2,0A8,8,0,0,0,31.28,219a8.85,8.85,0,0,0,4.89,1.23H74.82c1,0,1.91,0,2.87,0a8.13,8.13,0,0,0,6.61-3.31,8,8,0,0,0,1.5-4.65A1.25,1.25,0,0,0,83.3,212.27Z"/><rect class="cls-2" x="54.26" y="172.42" width="30.29" height="13.41" rx="6.7"/><path class="cls-3" d="M83.3,179.13a5.52,5.52,0,0,1-5.52,5.45c-1.4,0-2.8,0-4.2,0-4.11,0-8.21,0-12.32,0a5.56,5.56,0,0,1-5.58-4.11,5.5,5.5,0,0,1,5.12-6.79c3.59-.12,7.22,0,10.82,0h5.89a5.57,5.57,0,0,1,5.79,5.46,1.25,1.25,0,0,0,2.5,0,8,8,0,0,0-6.93-7.88,39.23,39.23,0,0,0-5-.08c-4.3,0-8.63-.1-12.93,0a8,8,0,0,0-2.48,15.51,17.46,17.46,0,0,0,5.5.4h8.1c1.92,0,3.84,0,5.75,0a8.05,8.05,0,0,0,8-8A1.25,1.25,0,0,0,83.3,179.13Z"/><rect class="cls-2" x="8.29" y="140.69" width="76.34" height="13.41" rx="6.7"/><path class="cls-3" d="M83.38,147.39a5.54,5.54,0,0,1-5.74,5.46H20.37c-3.27,0-7.71.75-9.86-2.34A5.51,5.51,0,0,1,15,141.94c.88,0,1.76,0,2.64,0H76.24a11.06,11.06,0,0,1,3.35.25,5.54,5.54,0,0,1,3.79,5.2,1.25,1.25,0,0,0,2.5,0,8.07,8.07,0,0,0-8-7.95c-1,0-2,0-3.06,0H15.32a8.12,8.12,0,0,0-7.59,4.71,8,8,0,0,0,5.91,11.08,21.6,21.6,0,0,0,3.32.12H72c3.68,0,8.11.64,11.13-1.9a8,8,0,0,0,2.8-6.06A1.25,1.25,0,0,0,83.38,147.39Z"/><rect class="cls-2" x="322.52" y="141.69" width="83.16" height="13.41" rx="6.7"/><path class="cls-3" d="M323.77,148.39c0-3.32,2.77-5.44,5.9-5.45h63.11c3.28,0,8.19-.84,10.49,2.07,2.86,3.62.07,8.75-4.37,8.84-1,0-2.07,0-3.1,0H331.28a17.45,17.45,0,0,1-3.07-.09,5.54,5.54,0,0,1-4.44-5.37,1.25,1.25,0,0,0-2.5,0,8.1,8.1,0,0,0,8.1,8c1.2,0,2.41,0,3.62,0h65.48a8.21,8.21,0,0,0,7.63-4.42,8,8,0,0,0-6.78-11.48c-.92,0-1.86,0-2.78,0H336.12c-3.6,0-8.46-.73-11.54,1.5a8,8,0,0,0-3.31,6.45A1.25,1.25,0,0,0,323.77,148.39Z"/><rect class="cls-2" x="322.36" y="180.44" width="55.73" height="13.41" rx="6.7"/><path class="cls-3" d="M323.61,187.14a5.51,5.51,0,0,1,5.47-5.45c.64,0,1.29,0,1.94,0h37.4c3,0,6.25-.21,7.85,3a5.51,5.51,0,0,1-3.39,7.66,9.43,9.43,0,0,1-2.7.22h-37c-2.44,0-5.47.43-7.5-1.17a5.55,5.55,0,0,1-2.07-4.29c-.05-1.61-2.55-1.61-2.5,0a8.06,8.06,0,0,0,6.1,7.74,14.15,14.15,0,0,0,3.18.22h39c.67,0,1.34,0,2,0a8,8,0,0,0,4.25-14.69,8.79,8.79,0,0,0-4.88-1.22H329.22a8.1,8.1,0,0,0-6.61,3.31,8,8,0,0,0-1.5,4.64A1.25,1.25,0,0,0,323.61,187.14Z"/><rect class="cls-2" x="322.36" y="213.58" width="30.29" height="13.41" rx="6.7"/><path class="cls-3" d="M323.61,220.29a5.52,5.52,0,0,1,5.51-5.46c1.4,0,2.8,0,4.21,0,4.1,0,8.21,0,12.31,0a5.59,5.59,0,0,1,5.59,4.11,5.52,5.52,0,0,1-5.12,6.8c-3.6.12-7.22,0-10.82,0h-5.9a5.56,5.56,0,0,1-5.78-5.45c-.05-1.61-2.55-1.62-2.5,0a8,8,0,0,0,6.93,7.87,39.07,39.07,0,0,0,5,.08c4.31,0,8.63.1,12.94,0a8,8,0,0,0,2.48-15.51,17.48,17.48,0,0,0-5.5-.4h-8.11c-1.91,0-3.83,0-5.75,0a8.06,8.06,0,0,0-7.95,8A1.25,1.25,0,0,0,323.61,220.29Z"/><rect class="cls-2" x="322.27" y="245.32" width="76.34" height="13.41" rx="6.7"/><path class="cls-3" d="M323.52,252a5.54,5.54,0,0,1,5.75-5.45h57.26c3.27,0,7.72-.75,9.86,2.33a5.51,5.51,0,0,1-4.51,8.58H330.67a11,11,0,0,1-3.35-.26,5.52,5.52,0,0,1-3.8-5.2,1.25,1.25,0,0,0-2.5,0,8.09,8.09,0,0,0,8,8c1,0,2,0,3.07,0h59.47a8.13,8.13,0,0,0,7.59-4.72,8,8,0,0,0-5.9-11.07,20.49,20.49,0,0,0-3.32-.12H335c-3.69,0-8.11-.65-11.13,1.89A8,8,0,0,0,321,252,1.25,1.25,0,0,0,323.52,252Z"/><rect class="cls-2" x="245.68" y="328.51" width="13.41" height="83.16" rx="6.7"/><path class="cls-3" d="M252.39,329.76c3.33,0,5.44,2.77,5.45,5.9,0,1.38,0,2.76,0,4.14v59c0,3.28.84,8.19-2.07,10.49-3.62,2.86-8.75.07-8.84-4.37,0-1,0-2.07,0-3.1V337.27a16.54,16.54,0,0,1,.1-3.07,5.52,5.52,0,0,1,5.36-4.44,1.25,1.25,0,0,0,0-2.5,8.1,8.1,0,0,0-8,8.1c0,1.2,0,2.41,0,3.62v65.48a8.21,8.21,0,0,0,4.42,7.63,8,8,0,0,0,11.49-6.78c.05-.92,0-1.86,0-2.78V342.11c0-3.6.73-8.46-1.5-11.54a8,8,0,0,0-6.45-3.31A1.25,1.25,0,0,0,252.39,329.76Z"/><rect class="cls-2" x="206.94" y="328.35" width="13.41" height="55.73" rx="6.7"/><path class="cls-3" d="M213.64,329.6a5.52,5.52,0,0,1,5.46,5.47c0,.64,0,1.29,0,1.94v37.41c0,3,.2,6.24-3,7.84a5.51,5.51,0,0,1-7.66-3.39,9.42,9.42,0,0,1-.21-2.7v-37c0-2.44-.44-5.47,1.16-7.5a5.55,5.55,0,0,1,4.29-2.07,1.25,1.25,0,0,0,0-2.5,8.06,8.06,0,0,0-7.74,6.11,14,14,0,0,0-.21,3.17v39c0,.67,0,1.34,0,2a8,8,0,0,0,14.68,4.24,8.8,8.8,0,0,0,1.23-4.88V338.07c0-.95,0-1.91,0-2.86a8.11,8.11,0,0,0-3.32-6.61,7.93,7.93,0,0,0-4.64-1.5A1.25,1.25,0,0,0,213.64,329.6Z"/><rect class="cls-2" x="173.79" y="328.35" width="13.41" height="30.29" rx="6.7"/><path class="cls-3" d="M180.5,329.6a5.51,5.51,0,0,1,5.45,5.51c0,1.4,0,2.81,0,4.21,0,4.1,0,8.21,0,12.31a5.46,5.46,0,1,1-10.91.47c-.12-3.6,0-7.22,0-10.82,0-2,0-3.93,0-5.9a5.56,5.56,0,0,1,5.46-5.78,1.25,1.25,0,0,0,0-2.5,8,8,0,0,0-7.88,6.93,39.07,39.07,0,0,0-.08,5c0,4.31-.1,8.63,0,12.94a8,8,0,0,0,15.51,2.48,17.48,17.48,0,0,0,.4-5.5V340.8c0-1.91,0-3.83,0-5.75a8.06,8.06,0,0,0-7.95-7.95A1.25,1.25,0,0,0,180.5,329.6Z"/><rect class="cls-2" x="142.06" y="328.26" width="13.41" height="76.34" rx="6.7"/><path class="cls-3" d="M148.76,329.51a5.55,5.55,0,0,1,5.46,5.75v57.27c0,3.27.74,7.71-2.34,9.85a5.5,5.5,0,0,1-8.57-4.51c0-.88,0-1.76,0-2.64V336.66a11,11,0,0,1,.25-3.35,5.52,5.52,0,0,1,5.2-3.8,1.25,1.25,0,0,0,0-2.5,8.08,8.08,0,0,0-7.95,8c0,1,0,2.05,0,3.07v55.48c0,1.33,0,2.66,0,4a8.11,8.11,0,0,0,4.71,7.59,8,8,0,0,0,11.07-5.9,20.49,20.49,0,0,0,.13-3.32V341c0-3.68.64-8.11-1.9-11.13a8,8,0,0,0-6.06-2.81A1.25,1.25,0,0,0,148.76,329.51Z"/></g></g></svg>