<svg xmlns="http://www.w3.org/2000/svg" viewBox="0 0 359.1 270.54"><defs><style>.cls-1{fill:#1d1d1b;stroke:#3c3c3b;}.cls-1,.cls-2{stroke-miterlimit:10;}.cls-2{fill:#b2b2b2;stroke:#706f6f;}</style></defs><g id="Capa_2" data-name="Capa 2"><g id="Capa_1-2" data-name="Capa 1"><rect class="cls-1" x="44.11" y="-30.67" width="269.54" height="331.88" transform="translate(314.15 -43.61) rotate(90)"/><rect class="cls-2" x="342.04" y="9.86" width="12.26" height="20.88" transform="translate(368.46 -327.87) rotate(90)"/><rect class="cls-2" x="342.04" y="31.08" width="12.26" height="20.88" transform="translate(389.68 -306.65) rotate(90)"/><rect class="cls-2" x="342.04" y="51.9" width="12.26" height="20.88" transform="translate(410.51 -285.82) rotate(90)"/><rect class="cls-2" x="342.04" y="73.12" width="12.26" height="20.88" transform="translate(431.72 -264.61) rotate(90)"/><rect class="cls-2" x="342.04" y="93.2" width="12.26" height="20.88" transform="translate(451.81 -244.52) rotate(90)"/><rect class="cls-2" x="342.04" y="114.42" width="12.26" height="20.88" transform="translate(473.02 -223.31) rotate(90)"/><rect class="cls-2" x="342.04" y="135.24" width="12.26" height="20.88" transform="translate(493.85 -202.48) rotate(90)"/><rect class="cls-2" x="342.04" y="156.46" width="12.26" height="20.88" transform="translate(515.07 -181.26) rotate(90)"/><rect class="cls-2" x="342.04" y="176.3" width="12.26" height="20.88" transform="translate(534.91 -161.42) rotate(90)"/><rect class="cls-2" x="342.04" y="197.52" width="12.26" height="20.88" transform="translate(556.12 -140.21) rotate(90)"/><rect class="cls-2" x="342.04" y="218.34" width="12.26" height="20.88" transform="translate(576.95 -119.38) rotate(90)"/><rect class="cls-2" x="342.04" y="239.56" width="12.26" height="20.88" transform="translate(598.17 -98.16) rotate(90)"/><rect class="cls-2" x="4.81" y="239.56" width="12.26" height="20.88" transform="translate(-239.06 260.94) rotate(-90)"/><rect class="cls-2" x="4.81" y="218.34" width="12.26" height="20.88" transform="translate(-217.84 239.72) rotate(-90)"/><rect class="cls-2" x="4.81" y="197.52" width="12.26" height="20.88" transform="translate(-197.02 218.9) rotate(-90)"/><rect class="cls-2" x="4.81" y="176.3" width="12.26" height="20.88" transform="translate(-175.8 197.68) rotate(-90)"/><rect class="cls-2" x="4.81" y="156.22" width="12.26" height="20.88" transform="translate(-155.72 177.6) rotate(-90)"/><rect class="cls-2" x="4.81" y="135" width="12.26" height="20.88" transform="translate(-134.5 156.38) rotate(-90)"/><rect class="cls-2" x="4.81" y="114.18" width="12.26" height="20.88" transform="translate(-113.68 135.56) rotate(-90)"/><rect class="cls-2" x="4.81" y="92.96" width="12.26" height="20.88" transform="translate(-92.46 114.34) rotate(-90)"/><rect class="cls-2" x="4.81" y="73.12" width="12.26" height="20.88" transform="translate(-72.62 94.5) rotate(-90)"/><rect class="cls-2" x="4.81" y="51.9" width="12.26" height="20.88" transform="translate(-51.4 73.28) rotate(-90)"/><rect class="cls-2" x="4.81" y="31.08" width="12.26" height="20.88" transform="translate(-30.58 52.46) rotate(-90)"/><rect class="cls-2" x="4.81" y="9.86" width="12.26" height="20.88" transform="translate(-9.36 31.24) rotate(-90)"/></g></g></svg>